<svg width="48" height="49" viewBox="0 0 48 49" fill="none" xmlns="http://www.w3.org/2000/svg">
<circle cx="24" cy="24.6445" r="24" fill="#EF6D58"/>
<path fill-rule="evenodd" clip-rule="evenodd" d="M15 15.6445C13.6002 15.6444 12.3864 16.6124 12.075 17.977L24 25.2655L35.925 17.977C35.6136 16.6124 34.3998 15.6444 33 15.6445H15ZM12 30.346V19.69L20.7045 25.009L12 30.346ZM22.1416 25.8892L12.2866 31.9297C12.7836 32.9777 13.8402 33.6453 15.0001 33.6442H33.0001C34.1598 33.6445 35.2158 32.9763 35.7121 31.9282L25.8571 25.8877L24.0001 27.0232L22.1416 25.8877V25.8892ZM36 30.346L27.2955 25.0105V25.009L36 19.69V30.346Z" fill="white"/>
</svg>
