<svg width="49" height="49" viewBox="0 0 49 49" fill="none" xmlns="http://www.w3.org/2000/svg">
<circle cx="24.5" cy="24.6445" r="24" fill="#EF6D58"/>
<path fill-rule="evenodd" clip-rule="evenodd" d="M24.5 16.6445C22.3267 16.6445 22.056 16.6539 21.2013 16.6939C18.2947 16.8272 16.6813 18.4392 16.548 21.3459C16.5093 22.2005 16.5 22.4725 16.5 24.6445C16.5 26.8179 16.5093 27.0899 16.548 27.9432C16.6813 30.8485 18.2947 32.4632 21.2013 32.5965C22.056 32.6352 22.3267 32.6445 24.5 32.6445C26.6733 32.6445 26.9453 32.6352 27.8 32.5965C30.7013 32.4632 32.3213 30.8512 32.452 27.9432C32.4907 27.0899 32.5 26.8179 32.5 24.6445C32.5 22.4725 32.4907 22.2005 32.452 21.3459C32.3213 18.4432 30.7067 16.8259 27.8 16.6939C26.9453 16.6539 26.6733 16.6445 24.5 16.6445ZM24.5001 18.0874C26.6361 18.0874 26.8894 18.0954 27.7334 18.1341C29.9027 18.2327 30.9134 19.2607 31.0134 21.4127C31.0507 22.2567 31.0587 22.5087 31.0587 24.6447C31.0587 26.7807 31.0507 27.0341 31.0134 27.8767C30.9134 30.0274 29.9041 31.0581 27.7334 31.1567C26.8894 31.1941 26.6374 31.2034 24.5001 31.2034C22.3641 31.2034 22.1107 31.1954 21.2681 31.1567C19.0947 31.0567 18.0881 30.0247 17.9881 27.8767C17.9507 27.0341 17.9414 26.7807 17.9414 24.6447C17.9414 22.5087 17.9507 22.2554 17.9881 21.4127C18.0867 19.2594 19.0974 18.2314 21.2681 18.1327C22.1107 18.0941 22.3641 18.0874 24.5001 18.0874ZM20.392 24.6445C20.392 22.3752 22.232 20.5365 24.5 20.5365C26.768 20.5365 28.608 22.3765 28.608 24.6445C28.608 26.9139 26.768 28.7525 24.5 28.7525C22.232 28.7525 20.392 26.9139 20.392 24.6445ZM24.4999 27.3114C23.0266 27.3114 21.8333 26.118 21.8333 24.6447C21.8333 23.1727 23.0266 21.978 24.4999 21.978C25.9719 21.978 27.1679 23.1714 27.1679 24.6447C27.1679 26.118 25.9719 27.3114 24.4999 27.3114ZM27.8093 20.375C27.8093 19.8444 28.24 19.415 28.7693 19.415C29.3013 19.415 29.7307 19.8444 29.7307 20.375C29.7307 20.9057 29.3 21.335 28.7693 21.335C28.2387 21.335 27.8093 20.9044 27.8093 20.375Z" fill="white"/>
</svg>
