<svg width="49" height="49" viewBox="0 0 49 49" fill="none" xmlns="http://www.w3.org/2000/svg">
<circle cx="24.5" cy="24.6445" r="24" fill="#EF6D58"/>
<path d="M32.5 20.1845C31.912 20.4459 31.2787 20.6219 30.6147 20.7019C31.2933 20.2952 31.812 19.6525 32.0587 18.8859C31.424 19.2619 30.7213 19.5352 29.9733 19.6819C29.376 19.0432 28.5213 18.6445 27.5787 18.6445C25.4587 18.6445 23.9013 20.6219 24.38 22.6752C21.6533 22.5379 19.2333 21.2312 17.6147 19.2459C16.7547 20.7205 17.1693 22.6512 18.6307 23.6285C18.0933 23.6112 17.588 23.4632 17.1453 23.2179C17.1093 24.7379 18.2 26.1605 19.7787 26.4779C19.3173 26.6032 18.8107 26.6325 18.296 26.5339C18.7133 27.8379 19.928 28.7859 21.3627 28.8125C19.98 29.8952 18.2427 30.3792 16.5 30.1739C17.9533 31.1059 19.6773 31.6485 21.5307 31.6485C27.6267 31.6485 31.0693 26.5005 30.8613 21.8832C31.504 21.4219 32.06 20.8432 32.5 20.1845Z" fill="white"/>
</svg>
