<svg width="48" height="49" viewBox="0 0 48 49" fill="none" xmlns="http://www.w3.org/2000/svg">
<circle cx="24" cy="24.6445" r="24" fill="#EF6D58"/>
<path fill-rule="evenodd" clip-rule="evenodd" d="M14.8281 13.4098C15.359 12.8797 16.0919 12.6029 16.8407 12.6496C17.5895 12.6964 18.2822 13.0623 18.743 13.6543L21.4354 17.1135C21.9289 17.748 22.1029 18.5746 21.9079 19.3546L21.0874 22.6397C21.0011 22.9858 21.1024 23.3518 21.3544 23.6043L25.0398 27.29C25.2925 27.5425 25.6592 27.6438 26.0058 27.557L29.2892 26.7364C30.0691 26.5414 30.8953 26.7156 31.5301 27.209L34.989 29.9001C36.2324 30.8676 36.3464 32.7052 35.2335 33.8168L33.6825 35.3678C32.5726 36.4779 30.9136 36.9654 29.3672 36.4209C25.4091 35.0281 21.8153 32.762 18.8525 29.7906C15.8815 26.828 13.6156 23.2345 12.2227 19.2766C11.6797 17.7315 12.1672 16.0709 13.2772 14.9609L14.8281 13.4098Z" fill="white"/>
</svg>
