<svg width="159" height="25" viewBox="0 0 159 25" fill="none" xmlns="http://www.w3.org/2000/svg">
<path d="M13.0106 18.6445L5.65707 22.3527L7.06148 14.4986L1.11231 8.93633L9.33385 7.79043L13.0106 0.644531L16.6874 7.79043L24.909 8.93633L18.9598 14.4986L20.3642 22.3527L13.0106 18.6445Z" fill="#F6D021"/>
<path d="M46.3725 18.6445L39.0189 22.3527L40.4233 14.4986L34.4741 8.93633L42.6957 7.79043L46.3725 0.644531L50.0492 7.79043L58.2708 8.93633L52.3216 14.4986L53.726 22.3527L46.3725 18.6445Z" fill="#F6D021"/>
<path d="M79.734 18.6445L72.3805 22.3527L73.7849 14.4986L67.8357 8.93633L76.0572 7.79043L79.734 0.644531L83.4108 7.79043L91.6324 8.93633L85.6832 14.4986L87.0876 22.3527L79.734 18.6445Z" fill="#F6D021"/>
<path d="M113.096 18.6445L105.742 22.3527L107.147 14.4986L101.198 8.93633L109.419 7.79043L113.096 0.644531L116.773 7.79043L124.994 8.93633L119.045 14.4986L120.449 22.3527L113.096 18.6445Z" fill="#F6D021"/>
<path d="M146.457 18.6445L139.104 22.3527L140.508 14.4986L134.559 8.93633L142.781 7.79043L146.457 0.644531L150.134 7.79043L158.356 8.93633L152.407 14.4986L153.811 22.3527L146.457 18.6445Z" fill="#F6D021"/>
</svg>
